<svg xmlns="http://www.w3.org/2000/svg" width="224.431" height="281.012" viewBox="0 0 59.381 74.351">
  <g transform="translate(-18.342 -36.352) scale(.60715)">
    <path d="M78.82 62.97a8.467 8.467 0 0 0-8.484 8.312H61.26a9.93 9.93 0 0 0-9.95 9.95v7.024h55.606v-7.023a9.93 9.93 0 0 0-9.95-9.951h-9.078a8.466 8.466 0 0 0-8.482-8.312z" fill="none" stroke="#000" stroke-width="6.194"/>
    <circle cx="79.112" cy="72.086" r="2.415"/>
    <path d="M106.736 79.443h6.316a10.937 10.937 0 0 1 10.961 10.96v76.968a10.937 10.937 0 0 1-10.961 10.961h-67.88a10.937 10.937 0 0 1-10.962-10.961V90.404a10.937 10.937 0 0 1 10.962-10.961h6.315" fill="none" stroke="#000" stroke-width="8"/>
  </g>
</svg>
