<svg xmlns="http://www.w3.org/2000/svg" width="47.536" height="47.536" viewBox="0 0 12.577 12.577">
  <path style="line-height:normal;font-variant-ligatures:normal;font-variant-position:normal;font-variant-caps:normal;font-variant-numeric:normal;font-variant-alternates:normal;font-feature-settings:normal;text-indent:0;text-align:start;text-decoration-line:none;text-decoration-style:solid;text-decoration-color:#000;text-transform:none;text-orientation:mixed;shape-padding:0;isolation:auto;mix-blend-mode:normal" d="M4.86 0v1.769c-.263.083-.514.19-.754.316L2.853.83l-.442.442L1.273 2.41l-.442.442 1.254 1.253c-.126.24-.233.491-.316.753H0V7.72h1.769c.083.261.19.511.315.75L.83 9.725l.443.443 1.137 1.137.442.442 1.253-1.253c.24.126.492.233.754.316v1.767h2.86V10.81c.262-.083.512-.19.752-.316l1.253 1.253.442-.442 1.138-1.138.442-.442-.413-.413-.84-.84c.126-.24.233-.49.316-.752h1.767V4.86h-1.767a4.709 4.709 0 0 0-.316-.754l1.253-1.253-.442-.442-1.137-1.137L9.724.83l-.413.413-.841.841a4.708 4.708 0 0 0-.751-.315V0h-2.86zm1.428 4.284a2.004 2.004 0 0 1 2.004 2.004 2.004 2.004 0 0 1-2.004 2.004 2.004 2.004 0 0 1-2.004-2.004 2.004 2.004 0 0 1 2.004-2.004z" color="#000" font-weight="400" font-family="sans-serif" white-space="normal" overflow="visible"/>
</svg>
