<svg xmlns="http://www.w3.org/2000/svg" viewBox="0 0 14.605 14.605" height="55.199" width="55.199">
  <g stroke="#000">
    <path d="M14.105 7.302a6.802 6.802 0 0 1-6.803 6.803A6.802 6.802 0 0 1 .5 7.302 6.802 6.802 0 0 1 7.302.5a6.802 6.802 0 0 1 6.803 6.802z" fill="none"/>
    <path d="M4.902 7.302a.885.885 0 0 1-.884.885.885.885 0 0 1-.885-.885.885.885 0 0 1 .885-.884.885.885 0 0 1 .884.884zm3.285 0a.885.885 0 0 1-.885.885.885.885 0 0 1-.884-.885.885.885 0 0 1 .884-.884.885.885 0 0 1 .885.884zm3.285 0a.885.885 0 0 1-.885.885.885.885 0 0 1-.885-.885.885.885 0 0 1 .885-.884.885.885 0 0 1 .885.884z" stroke-width=".525"/>
  </g>
</svg>
