<svg xmlns="http://www.w3.org/2000/svg" viewBox="0 0 16.508 12.659" height="47.846" width="62.391">
  <path d="M0 0a2.311 2.311 0 0 1 2.326 2.295v.001-.154 136.97A2.326 2.326 0 0 1 0 141.436h-227.977a2.327 2.327 0 0 1-2.327-2.324v.05V2.296A2.312 2.312 0 0 1-227.977 0z" stroke-linecap="round" stroke-linejoin="round" transform="matrix(.06775 0 0 -.08303 15.977 12.202)" fill="none" stroke="#000" stroke-width="11.02"/>
  <path d="M0 0h4.688v-31.373s-.049-.489-.426-.489H.427S0-31.889 0-31.373z" stroke-width=".768" stroke-miterlimit="10" transform="matrix(.5782 0 0 -.08303 2.277 7.327)" stroke="#000"/>
  <path d="M1.933 2.036c0-.27.212-.399.4-.396.187.004.39.094.39.405v1.232c0 .186-.21.395-.396.395-.186 0-.394-.173-.394-.395V2.036zm1.313 0c0-.27.212-.399.4-.396.187.004.39.094.39.405v1.232c0 .186-.21.395-.395.395-.187 0-.395-.173-.395-.395V2.036z" fill="#231f20" fill-rule="evenodd"/>
  <path d="M10.803 4.364h4.48V5.6h-4.48zm0-2.569h2.138V3.02h-2.138zm-8.966 2.74l3.41.978-.161.56-3.41-.977zm5.743.425a.565.565 0 0 1-.565.565.565.565 0 0 1-.565-.565.565.565 0 0 1 .565-.564.565.565 0 0 1 .565.564zm2.147 0a.565.565 0 0 1-.565.565.565.565 0 0 1-.565-.565.565.565 0 0 1 .565-.564.565.565 0 0 1 .565.564zm-.678-2.299a.978.978 0 0 1-.978.978.978.978 0 0 1-.978-.978.978.978 0 0 1 .978-.977.978.978 0 0 1 .978.977zm5.817-.254a.565.565 0 0 1-.565.565.565.565 0 0 1-.565-.565.565.565 0 0 1 .565-.565.565.565 0 0 1 .565.565z" fill="#231f20"/>
  <path d="M1.199 7.194h14.116" fill="none" stroke="#000" stroke-width=".783"/>
  <path d="M0 0h4.688v-31.373s-.049-.489-.426-.489H.427S0-31.889 0-31.373z" stroke-width=".768" stroke-miterlimit="10" transform="matrix(.5782 0 0 -.08303 6.858 7.327)" stroke="#000"/>
  <path d="M0 0h4.688v-31.373s-.049-.489-.426-.489H.427S0-31.889 0-31.373z" stroke-width=".768" stroke-miterlimit="10" transform="matrix(.5782 0 0 -.08303 11.439 7.327)" stroke="#000"/>
</svg>
