<svg xmlns="http://www.w3.org/2000/svg" viewBox="0 0 15.263 14.414" height="54.478" width="57.687">
  <path d="M0 0a2.311 2.311 0 0 1 2.326 2.295v.001-.154 136.97A2.326 2.326 0 0 1 0 141.436h-227.977a2.327 2.327 0 0 1-2.327-2.324v.05V2.296A2.312 2.312 0 0 1-227.977 0z" stroke-linecap="round" stroke-linejoin="round" transform="matrix(.06264 0 0 -.05673 14.772 8.336)" fill="none" stroke="#000" stroke-width="11.02"/>
  <path d="M5.344 6.622h4.442v2.471H5.344z" fill="#fff" stroke="#fff" stroke-width=".833"/>
  <g stroke="#000">
    <path d="M55.803 91.497h5.26v22.598h-5.26z" stroke-width="5.608" transform="matrix(.27846 0 0 -.20256 -8.728 29.898)"/>
    <path d="M68.68 99.187H48.187l5.124-8.874 5.123-8.875 5.124 8.875z" stroke-width="5" transform="matrix(.27846 0 0 -.20256 -8.728 29.898)"/>
  </g>
  <path d="M1.787 1.772c0-.25.196-.369.37-.366.173.004.36.087.36.374v1.14c0 .172-.193.365-.365.365s-.365-.16-.365-.365V1.772zm1.214 0c0-.25.197-.369.37-.366.173.004.36.087.36.374v1.14c0 .172-.193.365-.365.365s-.365-.16-.365-.365V1.772z" fill="#231f20" fill-rule="evenodd"/>
  <path d="M9.988 3.924h4.143v1.143H9.988zm0-2.374h1.977v1.13H9.988zM1.699 4.083l3.152.904-.149.518-3.152-.904zm5.309.393a.522.522 0 0 1-.522.522.522.522 0 0 1-.523-.522.522.522 0 0 1 .523-.522.522.522 0 0 1 .522.522zm1.986 0a.522.522 0 0 1-.523.522.522.522 0 0 1-.522-.522.522.522 0 0 1 .522-.522.522.522 0 0 1 .523.522zM8.367 2.35a.904.904 0 0 1-.904.904.904.904 0 0 1-.904-.904.904.904 0 0 1 .904-.904.904.904 0 0 1 .904.904zm5.378-.235a.522.522 0 0 1-.522.522.522.522 0 0 1-.523-.522.522.522 0 0 1 .523-.522.522.522 0 0 1 .522.522z" fill="#231f20"/>
</svg>
