<svg xmlns="http://www.w3.org/2000/svg" viewBox="0 0 13.79 12.493" height="47.218" width="52.122">
  <g fill-rule="evenodd" stroke="#000">
    <path d="M.152 10.806c6.28 0 6.95-6.942 10.969-6.942 0 1.278.013 1.367.013 1.367l2.441-2.44L11.121.364v1.353c-5.268 0-6.293 6.941-10.97 6.941v2.148z" stroke-width=".304"/>
    <path d="M6.667 8.58c1.3 1.46 2.315 2.25 4.551 2.25v1.31l2.364-2.35-2.35-2.363s-.014.086-.014 1.323c-1.521 0-2.129-.52-3.178-1.78-.285.342-.57.695-.869 1.054-.158.19-.338.369-.504.556z" stroke-width=".293"/>
    <path d="M5.162 4.012C3.892 2.57 2.745 1.677.143 1.677v2.036c1.73 0 2.517.629 3.635 1.876.293-.327.583-.662.873-1.004.166-.195.341-.38.51-.573z" stroke-width=".286"/>
  </g>
</svg>
